HIERARCHY
ROOT Hips
{
	OFFSET 0.000000 0.000000 0.000000
	CHANNELS 6 Xposition Yposition Zposition Zrotation Yrotation Xrotation 
	JOINT LHipJoint
	{
		OFFSET 0.000000 0.000000 0.000000
		CHANNELS 3 Zrotation Yrotation Xrotation
		JOINT LeftUpLeg
		{
			OFFSET 1.363060 -1.794630 0.839290
			CHANNELS 3 Zrotation Yrotation Xrotation
			JOINT LeftLeg
			{
				OFFSET 2.448110 -6.726130 0.000000
				CHANNELS 3 Zrotation Yrotation Xrotation
				JOINT LeftFoot
				{
					OFFSET 2.562200 -7.039590 0.000000
					CHANNELS 3 Zrotation Yrotation Xrotation
					JOINT LeftToeBase
					{
						OFFSET 0.157640 -0.433110 2.322550
						CHANNELS 3 Zrotation Yrotation Xrotation
						End Site
						{
							OFFSET 0.000000 0.000000 0.000000
						}
					}
				}
			}
		}
	}
	JOINT RHipJoint
	{
		OFFSET 0.000000 0.000000 0.000000
		CHANNELS 3 Zrotation Yrotation Xrotation
		JOINT RightUpLeg
		{
			OFFSET -1.305520 -1.794630 0.839290
			CHANNELS 3 Zrotation Yrotation Xrotation
			JOINT RightLeg
			{
				OFFSET -2.542530 -6.985550 0.000000
				CHANNELS 3 Zrotation Yrotation Xrotation
				JOINT RightFoot
				{
					OFFSET -2.568260 -7.056230 0.000000
					CHANNELS 3 Zrotation Yrotation Xrotation
					JOINT RightToeBase
					{
						OFFSET -0.164730 -0.452590 2.363150
						CHANNELS 3 Zrotation Yrotation Xrotation
						End Site
						{
							OFFSET 0.000000 0.000000 0.000000
						}
					}
				}
			}
		}
	}
	JOINT LowerBack
	{
		OFFSET 0.000000 0.000000 0.000000
		CHANNELS 3 Zrotation Yrotation Xrotation
		JOINT Spine
		{
			OFFSET 0.028270 2.035590 -0.193380
			CHANNELS 3 Zrotation Yrotation Xrotation
			JOINT Spine1
			{
				OFFSET 0.056720 2.048850 -0.042750
				CHANNELS 3 Zrotation Yrotation Xrotation
				JOINT Neck
				{
					OFFSET 0.000000 0.000000 0.000000
					CHANNELS 3 Zrotation Yrotation Xrotation
					JOINT Neck1
					{
						OFFSET -0.054170 1.746240 0.172020
						CHANNELS 3 Zrotation Yrotation Xrotation
						JOINT Head
						{
							OFFSET 0.104070 1.761360 -0.123970
							CHANNELS 3 Zrotation Yrotation Xrotation
							End Site
							{
								OFFSET 0.000000 0.000000 0.000000
							}
						}
					}
				}
				JOINT LeftShoulder
				{
					OFFSET 0.000000 0.000000 0.000000
					CHANNELS 3 Zrotation Yrotation Xrotation
					JOINT LeftArm
					{
						OFFSET 3.362410 1.200890 -0.311210
						CHANNELS 3 Zrotation Yrotation Xrotation
						JOINT LeftForeArm
						{
							OFFSET 4.983000 -0.000000 -0.000000
							CHANNELS 3 Zrotation Yrotation Xrotation
							JOINT LeftHand
							{
								OFFSET 3.483560 -0.000000 -0.000000
								CHANNELS 3 Zrotation Yrotation Xrotation
								JOINT LeftFingerBase
								{
									OFFSET 0.000000 0.000000 0.000000
									CHANNELS 3 Zrotation Yrotation Xrotation
									JOINT LeftHandIndex1
									{
										OFFSET 0.715260 -0.000000 -0.000000
										CHANNELS 3 Zrotation Yrotation Xrotation
										End Site
										{
											OFFSET 0.000000 0.000000 0.000000
										}
									}
								}
								JOINT LThumb
								{
									OFFSET 0.000000 0.000000 0.000000
									CHANNELS 3 Zrotation Yrotation Xrotation
									End Site
									{
										OFFSET 0.000000 0.000000 0.000000
									}
								}
							}
						}
					}
				}
				JOINT RightShoulder
				{
					OFFSET 0.000000 0.000000 0.000000
					CHANNELS 3 Zrotation Yrotation Xrotation
					JOINT RightArm
					{
						OFFSET -3.136600 1.374050 -0.404650
						CHANNELS 3 Zrotation Yrotation Xrotation
						JOINT RightForeArm
						{
							OFFSET -5.241900 -0.000000 -0.000000
							CHANNELS 3 Zrotation Yrotation Xrotation
							JOINT RightHand
							{
								OFFSET -3.444170 -0.000000 -0.000000
								CHANNELS 3 Zrotation Yrotation Xrotation
								JOINT RightFingerBase
								{
									OFFSET 0.000000 0.000000 0.000000
									CHANNELS 3 Zrotation Yrotation Xrotation
									JOINT RightHandIndex1
									{
										OFFSET -0.622530 -0.000000 -0.000000
										CHANNELS 3 Zrotation Yrotation Xrotation
										End Site
										{
											OFFSET 0.000000 0.000000 0.000000
										}
									}
								}
								JOINT RThumb
								{
									OFFSET 0.000000 0.000000 0.000000
									CHANNELS 3 Zrotation Yrotation Xrotation
									End Site
									{
										OFFSET 0.000000 0.000000 0.000000
									}
								}
							}
						}
					}
				}
			}
		}
	}
}
MOTION
Frames: 6
Frame Time: 0.008333
-0.012924 16.528028 0.783030 30.148056 60.786070 39.905197 -10.383440 2.954399 -3.172780 -3.802175 15.785901 -19.953074 -0.225525 2.828115 51.478776 1.551269 2.694238 25.292639 0.599100 -0.000000 -62.056100 10.170020 1.437417 -0.209401 13.672675 -4.875081 -38.591619 1.315645 -0.667690 26.101954 -5.372818 -17.396605 -22.811237 -176.408400 0.000000 -25.576700 0.322627 -3.779943 4.243310 -0.508553 -3.728588 -1.395466 -5.576448 -3.743316 2.751622 9.757669 -8.171914 -7.109160 -2.901327 -0.214796 0.001158 0.000000 0.000000 0.000000 -2.290516 10.259939 3.521924 -23.572871 -6.997035 -2.958811 -3.161358 -48.933889 0.018986 -12.774974 -0.886999 0.107572 -0.081645 0.072451 0.000000 0.000000 0.000000 0.000000 0.000000 0.000000 0.000000 15.116958 -7.840669 0.544023 59.657887 -6.619573 -27.471964 3.977176 6.090187 0.017941 2.101781 7.931281 0.139551 0.109943 -0.062552 -0.000000 0.000000 0.000000 0.000000 0.000000 0.000000 0.000000 
0.074575 16.528981 0.909777 28.514567 59.525645 38.673212 -10.330086 2.767591 -3.122880 -3.779659 14.918474 -21.388150 -0.070906 2.912606 53.787500 1.744985 5.180406 24.940060 1.809900 -0.000000 -57.857800 10.110628 1.344151 0.044255 13.914809 -3.259893 -37.822550 1.256167 -0.569931 25.867392 -5.476912 -17.613647 -23.409993 -176.146900 -0.000001 -26.203300 0.202907 -3.681194 3.975325 -0.540292 -3.630633 -1.454654 -5.617866 -3.647737 2.751988 10.006347 -7.842133 -7.063431 -2.880547 -0.213919 0.013706 0.000000 0.000000 0.000000 -2.077190 10.341933 3.524559 -24.099537 -5.624494 -1.647327 -3.284115 -48.088281 0.015668 -12.931164 -0.889408 0.107281 -0.091104 0.056024 0.000000 0.000000 0.000000 0.000000 0.000000 0.000000 0.000000 15.167081 -7.428970 0.583933 59.501108 -4.924381 -26.687818 3.989045 6.602498 0.017607 2.677640 7.685098 0.174564 0.105940 -0.062981 -0.000000 0.000000 0.000000 0.000000 0.000000 0.000000 0.000000 
0.157806 16.534614 1.038273 27.009791 58.161519 37.615198 -10.248153 2.585935 -3.046409 -3.864032 13.875996 -22.824513 0.073999 2.987328 55.894896 1.941266 7.731511 24.280098 3.029600 0.000000 -54.111100 10.071976 1.266607 0.320964 14.084506 -1.614658 -36.942958 1.189180 -0.442678 25.318730 -5.567310 -17.828476 -23.802115 -175.956401 -0.000000 -26.582300 0.014627 -3.587918 3.670574 -0.584042 -3.535913 -1.517780 -5.654779 -3.555286 2.760313 10.235785 -7.533241 -7.007723 -2.855815 -0.212894 0.028858 0.000000 0.000000 0.000000 -1.873521 10.439286 3.516006 -24.655362 -4.232029 -0.153961 -3.414616 -47.142526 0.011933 -13.084997 -0.851100 0.102181 -0.100600 0.038524 0.000000 0.000000 0.000000 0.000000 0.000000 0.000000 0.000000 15.188390 -7.043188 0.618358 59.453020 -3.118389 -25.630600 4.003381 7.366628 0.017366 3.338717 7.432693 0.212482 0.101565 -0.063532 -0.000000 0.000000 0.000000 0.000000 0.000000 0.000000 0.000000 
0.237269 16.545226 1.168043 25.626292 56.702606 36.714263 -10.143164 2.412668 -2.939004 -4.024427 12.674813 -24.242699 0.208074 3.048185 57.764569 2.136358 10.216810 23.377327 4.168900 0.000000 -50.899099 10.052541 1.200028 0.611312 14.192779 0.008655 -35.977569 1.124480 -0.292853 24.490250 -5.620406 -17.952579 -23.965229 -175.862500 0.000000 -26.778800 -0.226790 -3.497447 3.331996 -0.637122 -3.442138 -1.589248 -5.687062 -3.464242 2.759377 10.430635 -7.243435 -6.929032 -2.831465 -0.212270 0.050566 0.000000 0.000000 0.000000 -1.677437 10.455461 3.495497 -25.268493 -2.675341 1.478903 -3.546386 -46.172609 0.007667 -13.240103 -0.757508 0.090371 -0.109965 0.019722 0.000000 0.000000 0.000000 0.000000 0.000000 0.000000 0.000000 15.178451 -6.678760 0.652191 59.508857 -1.256831 -24.200394 4.020222 8.422502 0.017228 4.068482 7.180425 0.251904 0.096885 -0.064151 -0.000000 0.000000 0.000000 0.000000 0.000000 0.000000 0.000000 
0.313519 16.560929 1.298499 24.344723 55.154485 35.944541 -10.020426 2.249549 -2.799855 -4.226045 11.338787 -25.622777 0.329214 3.092353 59.363689 2.324994 12.527624 22.299779 5.160600 -0.000000 -48.279600 10.050060 1.140014 0.903911 14.255245 1.564306 -34.949546 1.071774 -0.127245 23.422944 -5.616205 -17.907246 -23.894927 -175.882400 0.000000 -26.845100 -0.503395 -3.405968 2.970616 -0.695862 -3.345599 -1.663920 -5.712194 -3.370621 2.759688 10.584759 -6.984854 -6.843732 -2.808276 -0.211847 0.074053 0.000000 0.000000 0.000000 -1.500730 10.486115 3.459173 -25.941925 -1.134248 3.239761 -3.683283 -45.096298 0.003056 -13.385947 -0.615533 0.072551 -0.119172 0.000520 0.000000 0.000000 0.000000 0.000000 0.000000 0.000000 0.000000 15.146898 -6.344119 0.678817 59.645097 0.641819 -22.290342 4.038778 9.809506 0.017176 4.839934 6.932245 0.290830 0.091995 -0.064690 -0.000000 0.000000 0.000000 0.000000 0.000000 0.000000 0.000000 
0.387006 16.581641 1.429154 23.143596 53.520759 35.274939 -9.884690 2.098106 -2.629707 -4.434620 9.900205 -26.944711 0.435399 3.117895 60.666982 2.500375 14.577146 21.105714 5.959400 0.000000 -46.210400 10.062150 1.081766 1.189242 14.288732 3.015500 -33.875804 1.039614 0.047946 22.161781 -5.540432 -17.632330 -23.606502 -176.019100 0.000000 -26.861399 -0.799993 -3.308298 2.596273 -0.757987 -3.241388 -1.743539 -5.730505 -3.269878 2.748803 10.692862 -6.748112 -6.746061 -2.790107 -0.212012 0.101069 0.000000 0.000000 0.000000 -1.338469 10.480783 3.407382 -26.697204 0.461096 5.086414 -3.820239 -43.961942 -0.001905 -13.524134 -0.419351 0.047819 -0.128034 -0.018954 0.000000 0.000000 0.000000 0.000000 0.000000 0.000000 0.000000 15.101065 -6.023380 0.702552 59.833334 2.519498 -19.824615 4.054619 11.561788 0.017170 5.616790 6.691186 0.327160 0.086918 -0.065120 -0.000000 0.000000 0.000000 0.000000 0.000000 0.000000 0.000000 
